<svg width="35" height="15" viewBox="0 0 35 15" fill="none" xmlns="http://www.w3.org/2000/svg">
<path d="M1 6.36397C0.447715 6.36397 0 6.81168 0 7.36397C0 7.91625 0.447715 8.36397 1 8.36397V7.36397V6.36397ZM34.7071 8.07107C35.0976 7.68055 35.0976 7.04739 34.7071 6.65686L28.3431 0.2929C27.9526 -0.0976243 27.3195 -0.0976243 26.9289 0.2929C26.5384 0.683424 26.5384 1.31659 26.9289 1.70711L32.5858 7.36397L26.9289 13.0208C26.5384 13.4113 26.5384 14.0445 26.9289 14.435C27.3195 14.8256 27.9526 14.8256 28.3431 14.435L34.7071 8.07107ZM1 7.36397V8.36397H34V7.36397V6.36397H1V7.36397Z" fill="#303131"/>
</svg>
